<svg width="24" height="23" viewBox="0 0 24 23" fill="none" xmlns="http://www.w3.org/2000/svg">
<g clip-path="url(#clip0_488_1953)">
<path d="M0.175781 6.08933H5.25949V1H0.175781V6.08933ZM1.52212 2.34783H3.91332V4.74168H1.52212V2.34783Z" fill="#EDC701"/>
<path d="M6.87891 1V6.08933H23.1542V1H6.87891ZM21.8079 4.74168H8.22525V2.34783H21.8079V4.74168Z" fill="#EDC701"/>
<path d="M0.175781 12.6928H5.25949V7.60352H0.175781V12.6928ZM1.52212 8.95117H3.91332V11.345H1.52212V8.95117Z" fill="#EDC701"/>
<path d="M6.87891 12.6928H23.1542V7.60352H6.87891V12.6928ZM8.22525 8.95117H21.8079V11.345H8.22525V8.95117Z" fill="#EDC701"/>
<path d="M0.175781 19.2965H5.25949V14.207H0.175781V19.2965ZM1.52212 15.5549H3.91332V17.9487H1.52212V15.5549Z" fill="#EDC701"/>
<path d="M6.87891 19.2965H23.1542V14.207H6.87891V19.2965ZM8.22525 15.5549H21.8079V17.9487H8.22525V15.5549Z" fill="#EDC701"/>
</g>
<defs>
<clipPath id="clip0_488_1953">
<rect width="22.9746" height="23" fill="white" transform="translate(0.175781)"/>
</clipPath>
</defs>
</svg>
