<svg width="24" height="22" viewBox="0 0 24 22" fill="none" xmlns="http://www.w3.org/2000/svg">
<g clip-path="url(#clip0_488_2020)">
<path d="M17.2298 11.0391C16.7686 10.8381 16.298 10.665 15.8192 10.52C17.37 9.45295 18.375 7.75393 18.375 5.84375C18.375 2.62152 15.5152 0 12 0C8.48478 0 5.62498 2.62152 5.62498 5.84375C5.62498 7.75603 6.63223 9.45673 8.1859 10.5235C6.7624 10.9531 5.4267 11.6216 4.25764 12.503C2.11395 14.1194 0.623466 16.3739 0.0608257 18.8514C-0.115518 19.6277 0.0957475 20.425 0.640341 21.0388C1.18226 21.6497 1.98584 22 2.84496 22H14.3906C14.9084 22 15.3281 21.6153 15.3281 21.1406C15.3281 20.666 14.9084 20.2812 14.3906 20.2812H2.84496C2.44475 20.2812 2.20329 20.0765 2.09501 19.9544C1.90803 19.7437 1.83565 19.4693 1.89645 19.2017C2.86934 14.9179 6.99134 11.7886 11.7514 11.6831C11.8339 11.686 11.9167 11.6875 12 11.6875C12.084 11.6875 12.1677 11.686 12.2509 11.683C13.7097 11.7144 15.1127 12.0196 16.4249 12.5914C16.8926 12.7951 17.4518 12.6128 17.6741 12.1841C17.8963 11.7555 17.6975 11.2428 17.2298 11.0391ZM12.2286 9.96346C12.1526 9.96222 12.0763 9.96157 12 9.96157C11.9243 9.96157 11.8487 9.96226 11.7731 9.96355C9.39677 9.85488 7.49998 8.04856 7.49998 5.84375C7.49998 3.5692 9.51865 1.71875 12 1.71875C14.4813 1.71875 16.5 3.5692 16.5 5.84375C16.5 8.048 14.6041 9.85398 12.2286 9.96346Z" fill="#EDC701"/>
<path d="M23.0625 17.0586H20.4844V14.6953C20.4844 14.2207 20.0647 13.8359 19.5469 13.8359C19.0291 13.8359 18.6094 14.2207 18.6094 14.6953V17.0586H16.0312C15.5135 17.0586 15.0938 17.4433 15.0938 17.918C15.0938 18.3926 15.5135 18.7773 16.0312 18.7773H18.6094V21.1406C18.6094 21.6153 19.0291 22 19.5469 22C20.0647 22 20.4844 21.6153 20.4844 21.1406V18.7773H23.0625C23.5803 18.7773 24 18.3926 24 17.918C24 17.4433 23.5803 17.0586 23.0625 17.0586Z" fill="#EDC701"/>
</g>
<defs>
<clipPath id="clip0_488_2020">
<rect width="24" height="22" fill="white"/>
</clipPath>
</defs>
</svg>
