<svg width="27" height="22" viewBox="0 0 27 22" fill="none" xmlns="http://www.w3.org/2000/svg">
<path d="M26.9999 5.92059C26.9992 5.68959 26.9084 5.47456 26.7682 5.32468L22.0224 0.248036C21.8707 0.0858566 21.6645 0 21.4627 0C21.3263 0 8.97372 0 8.70118 0C8.26433 0 7.91017 0.378851 7.91017 0.846154V2.04453C7.26301 2.24118 6.63921 2.51951 6.04527 2.87664L5.24924 2.02513C4.94037 1.69468 4.4395 1.69468 4.13058 2.02513L1.89317 4.4185C1.58446 4.74867 1.5843 5.28474 1.89317 5.61513L2.68914 6.46653C2.35538 7.10188 2.09519 7.76922 1.91131 8.46154H0.791017C0.354165 8.46154 0 8.84039 0 9.30769V12.6923C0 13.1596 0.354165 13.5385 0.791017 13.5385H1.91131C2.09519 14.2308 2.35533 14.898 2.68919 15.5334L1.89317 16.3849C1.58441 16.7151 1.5843 17.2512 1.89317 17.5815L4.13053 19.9748C4.43945 20.3052 4.94027 20.3052 5.24919 19.9748L6.04511 19.1234C6.63911 19.4805 7.2629 19.7588 7.91011 19.9555V21.1538C7.91011 21.6211 8.26428 22 8.70113 22H26.209C26.6458 22 27 21.6211 27 21.1538V5.92308C27 5.92223 26.9999 5.92144 26.9999 5.92059ZM22.2539 2.88894L24.2993 5.07692H22.2539V2.88894ZM11.0742 11.0005C11.074 11.4668 10.7192 11.8461 10.2832 11.8461C9.84705 11.8461 9.4922 11.4665 9.4922 10.9999C9.4922 10.5334 9.84705 10.1538 10.2832 10.1538C10.7192 10.1538 11.074 10.5331 11.0742 10.9994V11.0005ZM11.0742 8.60702C10.8266 8.5131 10.5605 8.46148 10.2832 8.46148C8.97472 8.46148 7.91017 9.60024 7.91017 10.9999C7.91017 12.3997 8.97472 13.5384 10.2832 13.5384C10.5605 13.5384 10.8266 13.4868 11.0742 13.3929V15.1456C10.8154 15.2017 10.551 15.2308 10.2832 15.2308C8.10238 15.2308 6.32813 13.3328 6.32813 11C6.32813 8.66715 8.10238 6.76923 10.2832 6.76923C10.551 6.76923 10.8154 6.79828 11.0742 6.85441V8.60702ZM8.85854 18.4617C7.97387 18.2696 7.13407 17.8952 6.36252 17.3487C6.04896 17.1267 5.63251 17.1715 5.36652 17.456L4.68989 18.1798L3.57118 16.9832L4.24792 16.2592C4.51386 15.9748 4.55578 15.5293 4.34811 15.1938C3.83733 14.3686 3.48728 13.4703 3.30766 12.5239C3.23283 12.1296 2.90867 11.8462 2.53247 11.8462H1.58203V10.1538H2.53247C2.90867 10.1538 3.23283 9.87044 3.30766 9.47602C3.48728 8.52957 3.83733 7.63124 4.34811 6.80601C4.55578 6.47054 4.51386 6.02501 4.24787 5.74053L3.57118 5.01673L4.68983 3.8201L5.36657 4.54401C5.63251 4.82855 6.04896 4.87328 6.36257 4.6512C7.13413 4.10475 7.97387 3.7303 8.85849 3.53822C9.22721 3.45817 9.49215 3.11142 9.49215 2.70899V1.69231H11.0742V5.13818C10.8134 5.09825 10.5494 5.07692 10.2832 5.07692C7.23 5.07692 4.74605 7.73402 4.74605 11C4.74605 14.266 7.23 16.9231 10.2832 16.9231C10.5494 16.9231 10.8134 16.9018 11.0742 16.8618V20.3077H9.49215V19.291C9.4922 18.8886 9.22726 18.5418 8.85854 18.4617ZM25.418 20.3077H12.6563V1.69231H20.6719V5.92308C20.6719 6.39038 21.0261 6.76923 21.4629 6.76923H25.418V20.3077Z" fill="#EDC701"/>
<path d="M14.8152 7H18.1848C18.635 7 19 6.55227 19 6C19 5.44773 18.635 5 18.1848 5H14.8152C14.365 5 14 5.44773 14 6C14 6.55227 14.365 7 14.8152 7Z" fill="#EDC701"/>
<path d="M14 10C14 10.5523 14.369 11 14.8242 11H23.1758C23.631 11 24 10.5523 24 10C24 9.44773 23.631 9 23.1758 9H14.8242C14.369 9 14 9.44773 14 10Z" fill="#EDC701"/>
<path d="M23.1758 12H14.8242C14.369 12 14 12.4477 14 13C14 13.5523 14.369 14 14.8242 14H23.1758C23.631 14 24 13.5523 24 13C24 12.4477 23.631 12 23.1758 12Z" fill="#EDC701"/>
<path d="M23.1758 16H14.8242C14.369 16 14 16.2239 14 16.5C14 16.7761 14.369 17 14.8242 17H23.1758C23.631 17 24 16.7761 24 16.5C24 16.2239 23.631 16 23.1758 16Z" fill="#EDC701"/>
</svg>
