<svg width="25" height="21" viewBox="0 0 25 21" fill="none" xmlns="http://www.w3.org/2000/svg">
<path d="M3.55566 13.7154C3.69629 13.8448 3.90296 13.8749 4.07321 13.7898L11.5279 10.114L5.96772 14.0478C5.83728 14.1403 5.76372 14.293 5.77308 14.4528L5.96407 17.7127C6.00186 18.3577 6.12512 18.9035 6.32075 19.2907C6.65688 19.9566 7.12492 20.0312 7.37389 20.0167C7.67509 19.999 7.96442 19.8412 8.23324 19.5472L9.26887 18.4147L10.9476 19.4369C11.3668 19.6923 11.861 19.8108 12.3766 19.7806C13.4411 19.7182 14.506 19.0318 15.157 17.9896L24.2469 3.42656C24.8733 2.42281 24.7696 1.81648 24.5726 1.48496C24.4425 1.26543 24.107 0.904011 23.3252 0.94981C23.0656 0.965023 22.7738 1.02431 22.4566 1.1254L1.84295 7.69913C0.923234 7.99226 0.329982 8.54899 0.171273 9.26615C0.0130192 9.9838 0.316844 10.7383 1.02733 11.3912L3.55566 13.7154ZM1.07537 9.4659C1.15963 9.08406 1.53201 8.76972 2.12407 8.5811L22.7381 2.00684C23.2925 1.83066 23.7233 1.86567 23.7774 1.95754C23.8273 2.0413 23.8257 2.35386 23.462 2.9366L14.3727 17.4997C13.8781 18.2917 13.0926 18.8115 12.3228 18.8566C11.9911 18.876 11.6908 18.8056 11.4297 18.6465L9.42556 17.426C9.34241 17.3757 9.24933 17.3538 9.15785 17.3591C9.04097 17.366 8.92711 17.4172 8.8435 17.5087L7.55082 18.9224C7.40093 19.086 7.32068 19.0925 7.3202 19.0931C7.2299 19.0706 6.94801 18.6745 6.88849 17.6585L6.71253 14.655L16.8475 7.48429C17.0442 7.34525 17.1013 7.07725 16.9774 6.86981C16.854 6.66098 16.589 6.58522 16.3754 6.6914L3.94868 12.8194L1.65358 10.7096C1.19642 10.2896 0.990689 9.84776 1.07537 9.4659Z" fill="white"/>
</svg>
