<svg width="15" height="12" viewBox="0 0 15 12" fill="none" xmlns="http://www.w3.org/2000/svg">
<path d="M13.99 2.32045L7.42271 0.849144C7.33008 0.827172 7.23251 0.824544 7.13626 0.841438C7.04001 0.858333 6.94719 0.894376 6.86376 0.947252C6.78032 1.00013 6.7081 1.06867 6.65173 1.1485C6.59536 1.22832 6.55608 1.31767 6.53641 1.41082C6.49539 1.60726 6.53026 1.80692 6.63424 1.97099C6.73822 2.13506 6.90387 2.25183 7.09903 2.29861L11.9139 3.37658L1.1719 10.1841C1.009 10.3035 0.894901 10.4755 0.852541 10.6657C0.810181 10.8559 0.842704 11.0501 0.94357 11.2093C1.04443 11.3685 1.20616 11.4808 1.39624 11.5237C1.58632 11.5666 1.79065 11.5369 1.96816 11.4405L12.7084 4.63417L11.6286 9.45005C11.5876 9.64649 11.6225 9.84615 11.7264 10.0102C11.8304 10.1743 11.9961 10.2911 12.1912 10.3378C12.2838 10.3598 12.3814 10.3624 12.4777 10.3455C12.5739 10.3287 12.6667 10.2926 12.7502 10.2397C12.8336 10.1869 12.9058 10.1183 12.9622 10.0385C13.0186 9.95866 13.0578 9.86931 13.0775 9.77617L14.5578 3.21651C14.601 3.01799 14.5666 2.81564 14.4614 2.64964C14.3562 2.48364 14.1879 2.36613 13.99 2.32045Z" fill="#020202"/>
</svg>
