<svg width="18" height="18" viewBox="0 0 18 18" fill="none" xmlns="http://www.w3.org/2000/svg">
<path d="M13.2073 16.7012C12.9938 16.7014 12.7835 16.6492 12.5948 16.5493L9.08871 14.7066C9.06154 14.6921 9.03121 14.6845 9.0004 14.6845C8.96959 14.6845 8.93925 14.6921 8.91208 14.7066L5.40659 16.5493C5.18935 16.6637 4.94446 16.7149 4.69962 16.6973C4.45478 16.6796 4.21977 16.5938 4.02117 16.4495C3.82257 16.3052 3.66832 16.1082 3.57587 15.8808C3.48341 15.6534 3.45645 15.4047 3.49802 15.1628L4.1674 11.2596C4.17254 11.229 4.1701 11.1976 4.1603 11.1682C4.15049 11.1388 4.13361 11.1122 4.11115 11.0908L1.27727 8.32503C1.10133 8.15361 0.976905 7.93634 0.918109 7.69783C0.859313 7.45932 0.868493 7.20912 0.944609 6.97556C1.02072 6.742 1.16073 6.53443 1.34877 6.37636C1.53681 6.2183 1.76536 6.11606 2.00852 6.08122L5.92521 5.51254C5.95569 5.5081 5.98462 5.49631 6.00952 5.47818C6.03441 5.46004 6.05451 5.43612 6.06809 5.40847L7.81915 1.85629C7.92761 1.63608 8.09556 1.45064 8.30398 1.32096C8.5124 1.19129 8.75296 1.12256 8.99843 1.12256C9.2439 1.12256 9.48446 1.19129 9.69288 1.32096C9.9013 1.45064 10.0693 1.63608 10.1777 1.85629L11.9299 5.40735C11.9436 5.43491 11.9637 5.45876 11.9886 5.47687C12.0135 5.49499 12.0423 5.50684 12.0728 5.51141L15.9928 6.08066C16.2359 6.11569 16.4643 6.21804 16.6522 6.37613C16.8401 6.53422 16.98 6.74174 17.0561 6.97522C17.1322 7.20869 17.1414 7.4588 17.0827 7.69724C17.024 7.93569 16.8998 8.15296 16.7241 8.32447L13.8874 11.0886C13.865 11.11 13.8482 11.1366 13.8384 11.166C13.8286 11.1954 13.8261 11.2268 13.8311 11.2573L14.5005 15.1605C14.5327 15.3491 14.5234 15.5425 14.4733 15.7271C14.4232 15.9118 14.3334 16.0833 14.2103 16.2297C14.0872 16.3761 13.9336 16.494 13.7603 16.575C13.587 16.656 13.3981 16.6983 13.2068 16.699L13.2073 16.7012ZM9.0004 13.5591C9.21373 13.559 9.42384 13.6112 9.6124 13.711L13.1179 15.5532C13.1489 15.5709 13.1845 15.579 13.2202 15.5765C13.2558 15.574 13.2899 15.561 13.3181 15.5391C13.3476 15.5189 13.3705 15.4905 13.384 15.4574C13.3975 15.4243 13.401 15.388 13.3941 15.3529L12.7241 11.4492C12.6884 11.2391 12.7041 11.0234 12.7699 10.8207C12.8357 10.618 12.9497 10.4343 13.1021 10.2853L15.9388 7.52066C15.9642 7.49586 15.982 7.46448 15.9905 7.43005C15.9989 7.39562 15.9976 7.35952 15.9866 7.32583C15.9756 7.29213 15.9554 7.26218 15.9282 7.23936C15.9011 7.21653 15.8682 7.20174 15.8331 7.19666L11.9136 6.62685C11.7026 6.59629 11.5022 6.51482 11.3297 6.38948C11.1572 6.26413 11.0178 6.09868 10.9236 5.90741L9.16915 2.35579C9.15343 2.324 9.12915 2.29724 9.09903 2.27854C9.06891 2.25983 9.03416 2.24991 8.99871 2.24991C8.96325 2.24991 8.9285 2.25983 8.89839 2.27854C8.86827 2.29724 8.84398 2.324 8.82827 2.35579L7.07721 5.90628C6.98293 6.09762 6.84347 6.26312 6.67088 6.38847C6.49829 6.51382 6.29777 6.59525 6.08665 6.62572L2.16771 7.19666C2.13256 7.20163 2.09951 7.21637 2.07233 7.23921C2.04515 7.26204 2.02492 7.29205 2.01396 7.32582C2.003 7.35958 2.00174 7.39575 2.01033 7.4302C2.01891 7.46464 2.037 7.49599 2.06252 7.52066L4.89865 10.2853C5.05106 10.4343 5.16507 10.618 5.2309 10.8207C5.29674 11.0234 5.31244 11.2391 5.27665 11.4492L4.60671 15.3529C4.60063 15.388 4.60452 15.4241 4.61794 15.457C4.63135 15.49 4.65375 15.5185 4.68259 15.5394C4.71143 15.5603 4.74554 15.5726 4.78106 15.5751C4.81657 15.5775 4.85205 15.5699 4.88346 15.5532L8.3884 13.7104C8.57709 13.611 8.78714 13.5591 9.0004 13.5591Z" fill="black"/>
</svg>
