<svg width="16" height="16" viewBox="0 0 16 16" fill="none" xmlns="http://www.w3.org/2000/svg">
<path d="M6.86634 10.2L5.33301 11.7333V2.66667C5.33301 2.26667 5.06634 2 4.66634 2C4.26634 2 3.99967 2.26667 3.99967 2.66667V11.7333L2.46634 10.2C2.19967 9.93333 1.79967 9.93333 1.53301 10.2C1.26634 10.4667 1.26634 10.8667 1.53301 11.1333L4.19967 13.8C4.26634 13.8667 4.33301 13.9333 4.39967 13.9333C4.46634 14 4.59967 14 4.66634 14C4.73301 14 4.86634 14 4.93301 13.9333C4.99967 13.9333 5.06634 13.8667 5.13301 13.8L7.79967 11.1333C8.06634 10.8667 8.06634 10.4667 7.79967 10.2C7.53301 9.93333 7.13301 9.93333 6.86634 10.2ZM14.4663 4.86667L11.7997 2.2C11.733 2.13333 11.6663 2.06667 11.5997 2.06667C11.533 2 11.3997 2 11.333 2C11.2663 2 11.133 2 11.0663 2.06667C10.9997 2.06667 10.933 2.13333 10.8663 2.2L8.19967 4.86667C7.93301 5.13333 7.93301 5.53333 8.19967 5.8C8.46634 6.06667 8.86634 6.06667 9.13301 5.8L10.6663 4.26667V13.3333C10.6663 13.7333 10.933 14 11.333 14C11.733 14 11.9997 13.7333 11.9997 13.3333V4.26667L13.533 5.8C13.7997 6.06667 14.1997 6.06667 14.4663 5.8C14.733 5.53333 14.733 5.13333 14.4663 4.86667Z" fill="black"/>
</svg>
