<svg width="13" height="13" viewBox="0 0 13 13" fill="none" xmlns="http://www.w3.org/2000/svg">
<path d="M12.6008 9.8256C12.1987 9.48842 9.84078 7.99526 9.44886 8.0638C9.26486 8.09646 9.1241 8.25332 8.74736 8.70274C8.57314 8.92395 8.3818 9.13113 8.17512 9.32236C7.79644 9.23089 7.42989 9.09501 7.08308 8.91756C5.72299 8.25539 4.62421 7.15629 3.96244 5.796C3.78499 5.44919 3.64912 5.08264 3.55764 4.70396C3.74888 4.49728 3.95605 4.30595 4.17726 4.13172C4.62622 3.75498 4.78354 3.61514 4.8162 3.43022C4.88474 3.03738 3.3902 0.68034 3.0544 0.2783C2.91364 0.11178 2.78576 0 2.622 0C2.14728 0 0 2.65512 0 2.9992C0 3.02726 0.046 5.7914 3.53694 9.34306C7.0886 12.834 9.85274 12.88 9.8808 12.88C10.2249 12.88 12.88 10.7327 12.88 10.258C12.88 10.0942 12.7682 9.96636 12.6008 9.8256Z" fill="white"/>
<path d="M9.66039 5.9798H10.5804C10.5793 5.00414 10.1912 4.06876 9.50133 3.37886C8.81144 2.68897 7.87605 2.3009 6.90039 2.2998V3.2198C7.63216 3.22054 8.33376 3.51155 8.8512 4.029C9.36864 4.54644 9.65966 5.24803 9.66039 5.9798Z" fill="white"/>
<path d="M11.9604 5.98H12.8804C12.8786 4.39457 12.2479 2.87459 11.1269 1.75352C10.0058 0.632446 8.48582 0.00182619 6.90039 0V0.92C8.2419 0.921583 9.52801 1.4552 10.4766 2.40379C11.4252 3.35238 11.9588 4.63849 11.9604 5.98Z" fill="white"/>
</svg>
