<svg width="25" height="26" viewBox="0 0 25 26" fill="none" xmlns="http://www.w3.org/2000/svg">
<path d="M19.794 18.4141C18.0751 18.4141 16.6768 19.8684 16.6768 21.656C16.6768 23.4435 18.0752 24.8979 19.794 24.8979C21.5128 24.8979 22.9112 23.4435 22.9112 21.656C22.9112 19.8684 21.5128 18.4141 19.794 18.4141ZM19.794 22.9527C19.1063 22.9527 18.5471 22.3711 18.5471 21.656C18.5471 20.9408 19.1063 20.3592 19.794 20.3592C20.4816 20.3592 21.0408 20.9408 21.0408 21.656C21.0408 22.3711 20.4816 22.9527 19.794 22.9527Z" fill="currentColor"/>
<path d="M24.8013 5.88464C24.6242 5.64896 24.3527 5.51149 24.065 5.51149H5.77249L4.93084 1.84913C4.83015 1.41149 4.45388 1.10254 4.02121 1.10254H0.935161C0.418655 1.10249 0 1.53789 0 2.07506C0 2.61222 0.418655 3.04762 0.935161 3.04762H3.28307L6.32235 16.2733C6.42303 16.7113 6.7993 17.0199 7.23197 17.0199H21.7894C22.2193 17.0199 22.594 16.7152 22.6971 16.2814L24.9727 6.71776C25.0416 6.42734 24.9783 6.12031 24.8013 5.88464ZM21.0578 15.0748H7.97011L6.21947 7.45663H22.8701L21.0578 15.0748Z" fill="currentColor"/>
<path d="M8.47853 18.4141C6.75968 18.4141 5.36133 19.8684 5.36133 21.656C5.36133 23.4435 6.75973 24.8979 8.47853 24.8979C10.1973 24.8979 11.5957 23.4435 11.5957 21.656C11.5957 19.8684 10.1973 18.4141 8.47853 18.4141ZM8.47853 22.9527C7.79088 22.9527 7.23165 22.3711 7.23165 21.656C7.23165 20.9408 7.79088 20.3592 8.47853 20.3592C9.16619 20.3592 9.72542 20.9408 9.72542 21.656C9.72542 22.3711 9.16619 22.9527 8.47853 22.9527Z" fill="currentColor"/>
</svg>
