<svg width="12" height="10" viewBox="0 0 12 10" fill="none" xmlns="http://www.w3.org/2000/svg">
<path d="M11.2155 1.116C10.3035 1.948 9.41553 2.916 8.55153 4.02C7.79953 4.972 7.12353 5.948 6.52353 6.948C5.97953 7.844 5.58353 8.612 5.33553 9.252C5.32753 9.276 5.31153 9.296 5.28753 9.312C5.26353 9.336 5.23553 9.348 5.20353 9.348C5.19553 9.356 5.18753 9.36 5.17953 9.36C5.12353 9.36 5.08353 9.344 5.05953 9.312L0.775531 4.956C0.767531 4.948 0.871531 4.844 1.08753 4.644C1.30353 4.436 1.51553 4.248 1.72353 4.08C1.95553 3.888 2.07953 3.8 2.09553 3.816L4.44753 5.664C5.13553 4.856 5.90753 4.056 6.76353 3.264C8.05153 2.08 9.37953 1.072 10.7475 0.24C10.7715 0.24 10.8635 0.352 11.0235 0.576L11.2635 0.924C11.2715 0.956 11.2715 0.992 11.2635 1.032C11.2555 1.064 11.2395 1.092 11.2155 1.116Z" fill="currentColor"/>
</svg>
