<svg width="46" height="42" viewBox="0 0 46 42" fill="none" xmlns="http://www.w3.org/2000/svg">
<g clip-path="url(#clip0_171_112)">
<path d="M34.7397 24.9712C31.5425 24.9712 28.9414 27.3461 28.9414 30.2653C28.9414 33.1846 31.5425 35.5595 34.7397 35.5595C37.9376 35.5595 40.5381 33.1846 40.5381 30.2653C40.5381 27.3461 37.937 24.9712 34.7397 24.9712ZM34.7397 32.9124C33.1409 32.9124 31.8406 31.7252 31.8406 30.2653C31.8406 28.8055 33.1409 27.6183 34.7397 27.6183C36.3386 27.6183 37.6389 28.8055 37.6389 30.2653C37.6389 31.7252 36.3386 32.9124 34.7397 32.9124Z" fill="#1B1B1B"/>
<path d="M14.9302 24.9712C11.7329 24.9712 9.13184 27.3461 9.13184 30.2653C9.13184 33.1846 11.7329 35.5595 14.9302 35.5595C18.1274 35.5595 20.7285 33.1846 20.7285 30.2653C20.7285 27.3461 18.1274 24.9712 14.9302 24.9712ZM14.9302 32.9124C13.3313 32.9124 12.031 31.7252 12.031 30.2653C12.031 28.8055 13.3313 27.6183 14.9302 27.6183C16.5286 27.6183 17.8293 28.8055 17.8293 30.2653C17.8293 31.7252 16.529 32.9124 14.9302 32.9124Z" fill="#1B1B1B"/>
<path d="M38.6457 9.81771C38.3993 9.37081 37.8982 9.08887 37.3503 9.08887H29.7158V11.7359H36.4563L40.4035 18.9042L42.9945 17.7147L38.6457 9.81771Z" fill="#1B1B1B"/>
<path d="M30.3923 28.9858H19.4238V31.6329H30.3923V28.9858Z" fill="#1B1B1B"/>
<path d="M10.5831 28.9858H5.55794C4.75725 28.9858 4.1084 29.5784 4.1084 30.3093C4.1084 31.0404 4.75734 31.6328 5.55794 31.6328H10.5832C11.3839 31.6328 12.0327 31.0403 12.0327 30.3093C12.0327 29.5783 11.3838 28.9858 10.5831 28.9858Z" fill="#1B1B1B"/>
<path d="M45.6968 20.8948L42.8455 17.5419C42.5716 17.2189 42.1488 17.0301 41.7008 17.0301H31.1672V7.76539C31.1672 7.03432 30.5182 6.44189 29.7176 6.44189H5.55794C4.75725 6.44189 4.1084 7.03441 4.1084 7.76539C4.1084 8.49637 4.75734 9.08888 5.55794 9.08888H28.268V18.3536C28.268 19.0846 28.917 19.6771 29.7175 19.6771H40.991L43.102 22.16V28.9859H39.0915C38.2908 28.9859 37.6419 29.5784 37.6419 30.3094C37.6419 31.0404 38.2909 31.6329 39.0915 31.6329H44.5516C45.3522 31.6329 46.0011 31.0404 46.0012 30.3094V21.7066C46.0012 21.4128 45.8939 21.1269 45.6968 20.8948Z" fill="#1B1B1B"/>
<path d="M10.4848 22.2798H3.81673C3.01604 22.2798 2.36719 22.8723 2.36719 23.6033C2.36719 24.3343 3.01613 24.9268 3.81673 24.9268H10.4848C11.2854 24.9268 11.9343 24.3343 11.9343 23.6033C11.9344 22.8723 11.2854 22.2798 10.4848 22.2798Z" fill="#1B1B1B"/>
<path d="M13.8193 17.0742H1.44954C0.648941 17.0742 0 17.6667 0 18.3978C0 19.1289 0.648941 19.7213 1.44954 19.7213H13.8193C14.62 19.7213 15.2689 19.1288 15.2689 18.3978C15.2689 17.6668 14.62 17.0742 13.8193 17.0742Z" fill="#1B1B1B"/>
<path d="M16.1865 11.8682H3.81673C3.01604 11.8682 2.36719 12.4607 2.36719 13.1917C2.36719 13.9227 3.01613 14.5151 3.81673 14.5151H16.1865C16.9872 14.5151 17.636 13.9226 17.636 13.1917C17.6361 12.4607 16.9872 11.8682 16.1865 11.8682Z" fill="#1B1B1B"/>
</g>
<defs>
<clipPath id="clip0_171_112">
<rect width="46" height="42" fill="white" transform="translate(0 0.000488281)"/>
</clipPath>
</defs>
</svg>
