<svg width="55" height="55" viewBox="0 0 55 55" fill="none" xmlns="http://www.w3.org/2000/svg">
<g clip-path="url(#clip0_254_2712)">
<path d="M51.6267 36.8482C58.1303 27.7936 54.7679 14.2989 45.2524 9.17669V3.9906C45.1995 2.56684 43.1563 2.56791 43.104 3.9906V8.12396C42.0715 7.69546 40.9942 7.3545 39.8811 7.1098V3.9906C39.8282 2.56684 37.785 2.56791 37.7327 3.9906V6.76283C34.2978 6.40114 30.764 6.99561 27.6352 8.44923V1.07421C27.6352 0.481033 27.1542 0 26.5609 0H1.08789C0.494598 0 0.0136719 0.481033 0.0136719 1.07421V26.5474C0.0136719 27.1406 0.494598 27.6216 1.08789 27.6216H16.5387C16.635 28.7185 16.8243 29.7959 17.1003 30.8444H10.7096C9.28586 30.8972 9.28693 32.9405 10.7096 32.9928H17.8037C19.2235 36.5998 21.7149 39.7378 25.0046 41.9434L18.3966 53.3888C18.2046 53.7211 18.2046 54.1306 18.3966 54.463C18.5884 54.7954 18.943 55.0001 19.3269 55.0001H48.26C48.6438 55.0001 48.9984 54.7954 49.1902 54.463C49.3822 54.1306 49.3822 53.7211 49.1902 53.3888L43.5207 43.569C46.7988 42.1247 49.588 39.8163 51.6267 36.8482ZM2.1621 2.14843H25.4867V25.4732H2.1621V2.14843ZM21.1876 52.8516L33.7935 31.0174L46.3995 52.8516H21.1876ZM42.4395 41.6957L34.7239 28.3319C34.3366 27.6235 33.2505 27.6236 32.8634 28.3319L26.082 40.0775C23.4583 38.2864 21.4162 35.8239 20.1354 32.9928H21.7737C23.1975 32.9399 23.1964 30.8967 21.7737 30.8444H19.3312C19.0191 29.8014 18.806 28.7228 18.6971 27.6216H26.5611C27.1543 27.6216 27.6353 27.1406 27.6353 26.5474V10.8494C30.7001 9.19785 34.2763 8.51261 37.7328 8.92533V11.7249C37.7856 13.1487 39.8289 13.1476 39.8812 11.7249V9.31623C41.003 9.59596 42.0814 9.98601 43.1041 10.4752V19.4593C43.1569 20.8831 45.2002 20.882 45.2525 19.4593V11.7012C56.4461 18.9916 54.9236 36.4689 42.4395 41.6957Z" fill="currentColor"/>
<path d="M13.8233 36.2158H5.87406C4.4503 36.2687 4.45137 38.3119 5.87406 38.3643H13.8233C15.2471 38.3114 15.246 36.2681 13.8233 36.2158Z" fill="currentColor"/>
<path d="M5.87449 32.9927C7.29826 32.9398 7.29719 30.8966 5.87449 30.8442H5.87364C4.44987 30.8972 4.4518 32.9405 5.87449 32.9927Z" fill="currentColor"/>
</g>
<defs>
<clipPath id="clip0_254_2712">
<rect width="55" height="55" fill="white"/>
</clipPath>
</defs>
</svg>
