<svg width="53" height="51" viewBox="0 0 53 51" fill="none" xmlns="http://www.w3.org/2000/svg">
<path d="M49.2782 22.107C49.0753 16.3259 46.7341 10.9199 42.6233 6.80909C38.3146 2.49953 32.5881 0.126953 26.4997 0.126953C14.2029 0.126953 4.15527 9.91456 3.72216 22.107C1.84563 22.941 0.532227 24.8192 0.532227 27.0021V33.0159C0.532227 35.969 2.93462 38.3723 5.88854 38.3723C7.79985 38.3723 9.35424 36.8179 9.35424 34.9066V25.1107C9.35424 23.3161 7.9779 21.8528 6.22807 21.6789C6.87401 11.0565 15.7167 2.61133 26.4997 2.61133C31.9256 2.61133 37.0277 4.72636 40.8677 8.56638C44.3939 12.0925 46.4576 16.6886 46.7681 21.6797C45.0199 21.8553 43.6461 23.3178 43.6461 25.1107V34.9057C43.6461 36.7152 45.0439 38.1876 46.8145 38.3408V40.8161C46.8145 43.6035 44.5462 45.8709 41.7588 45.8709H38.0148C37.831 45.3459 37.5428 44.8606 37.1387 44.4581C36.4306 43.7468 35.4866 43.3551 34.4812 43.3551H30.6222C30.0681 43.3551 29.5365 43.4727 29.0495 43.6996C27.7212 44.3099 26.8633 45.6498 26.8633 47.1131C26.8633 48.1185 27.255 49.0625 27.9647 49.7689C28.6744 50.4803 29.6185 50.872 30.6222 50.872H34.4812C36.0812 50.872 37.4914 49.8376 38.0173 48.3553H41.7588C45.9168 48.3553 49.2989 44.9732 49.2989 40.8161V37.8986C51.1638 37.0597 52.4673 35.1881 52.4673 33.0143V27.0004C52.4673 24.8192 51.1539 22.941 49.2782 22.107ZM6.86904 25.1107V34.9057C6.86904 35.4465 6.42931 35.8871 5.88771 35.8871C4.30434 35.8871 3.01577 34.5985 3.01577 33.0151V27.0013C3.01577 25.4171 4.30434 24.1293 5.88771 24.1293C6.42931 24.1293 6.86904 24.5699 6.86904 25.1107ZM35.7275 47.3798C35.6042 47.9644 35.0791 48.3893 34.4804 48.3893H30.6213C30.2818 48.3893 29.963 48.2568 29.7195 48.0133C29.4793 47.774 29.3468 47.4543 29.3468 47.1148C29.3468 46.6187 29.6375 46.1657 30.093 45.9562C30.2553 45.88 30.4333 45.8411 30.6213 45.8411H34.4804C34.8199 45.8411 35.1387 45.9728 35.3814 46.2163C35.6215 46.4556 35.754 46.7752 35.754 47.1148C35.7549 47.2059 35.7449 47.297 35.7275 47.3798ZM49.9829 33.0151C49.9829 34.5985 48.6943 35.8871 47.1109 35.8871C46.5702 35.8871 46.1296 35.4473 46.1296 34.9057V25.1107C46.1296 24.5699 46.5694 24.1293 47.1109 24.1293C48.6943 24.1293 49.9829 25.4179 49.9829 27.0013V33.0151Z" fill="currentColor"/>
<path d="M34.5431 33.4431C37.4457 33.4431 39.8067 31.0813 39.8067 28.1795V17.4545C39.8067 16.0516 39.2584 14.7299 38.263 13.7345C37.2676 12.7391 35.9468 12.1909 34.5431 12.1909H18.4559C15.5534 12.1909 13.1924 14.5519 13.1924 17.4545V28.1795C13.1924 31.0821 15.5534 33.4431 18.4559 33.4431H18.5545V36.2223C18.5545 37.2823 19.1864 38.223 20.1635 38.6197C20.4791 38.7464 20.807 38.8093 21.1316 38.8093C21.8082 38.8093 22.4674 38.541 22.9502 38.0417L27.5736 33.4431H34.5431ZM26.1865 31.3198L21.183 36.296C21.1606 36.3192 21.144 36.3366 21.0968 36.3159C21.0397 36.2927 21.0397 36.2554 21.0397 36.2223V32.2009C21.0397 31.5152 20.484 30.9587 19.7975 30.9587H18.4568C16.9239 30.9587 15.6776 29.7116 15.6776 28.1795V17.4545C15.6776 15.9216 16.9239 14.6753 18.4568 14.6753H34.5439C35.2843 14.6753 35.9807 14.9651 36.5074 15.491C37.0341 16.0177 37.3231 16.715 37.3231 17.4545V28.1795C37.3231 29.7124 36.076 30.9587 34.5439 30.9587H27.0626C26.7339 30.9587 26.4192 31.0887 26.1865 31.3198Z" fill="currentColor"/>
<path d="M20.4655 21.1826C19.4551 21.1826 18.6328 22.0058 18.6328 23.0153C18.6328 24.0247 19.456 24.8479 20.4655 24.8479C21.4766 24.8479 22.2997 24.0247 22.2997 23.0153C22.2997 22.0058 21.4774 21.1826 20.4655 21.1826Z" fill="currentColor"/>
<path d="M26.4987 21.1826C25.4883 21.1826 24.666 22.0058 24.666 23.0153C24.666 24.0247 25.4892 24.8479 26.4987 24.8479C27.5106 24.8479 28.333 24.0247 28.333 23.0153C28.333 22.0058 27.5106 21.1826 26.4987 21.1826Z" fill="currentColor"/>
<path d="M32.5328 21.1826C31.5225 21.1826 30.7002 22.0058 30.7002 23.0153C30.7002 24.0247 31.5234 24.8479 32.5328 24.8479C33.544 24.8479 34.3671 24.0247 34.3671 23.0153C34.3671 22.0058 33.544 21.1826 32.5328 21.1826Z" fill="currentColor"/>
</svg>
