<svg width="48" height="48" viewBox="0 0 48 48" fill="none" xmlns="http://www.w3.org/2000/svg">
<path d="M45.875 38.0625H44.3125V2.125C44.3125 1.7106 44.1479 1.31317 43.8549 1.02015C43.5618 0.72712 43.1644 0.5625 42.75 0.5625H5.25C4.8356 0.5625 4.43817 0.72712 4.14515 1.02015C3.85212 1.31317 3.6875 1.7106 3.6875 2.125V38.0625H2.125C1.7106 38.0625 1.31317 38.2271 1.02015 38.5201C0.72712 38.8132 0.5625 39.2106 0.5625 39.625V45.875C0.5625 46.2894 0.72712 46.6868 1.02015 46.9799C1.31317 47.2729 1.7106 47.4375 2.125 47.4375H45.875C46.2894 47.4375 46.6868 47.2729 46.9799 46.9799C47.2729 46.6868 47.4375 46.2894 47.4375 45.875V39.625C47.4375 39.2106 47.2729 38.8132 46.9799 38.5201C46.6868 38.2271 46.2894 38.0625 45.875 38.0625ZM41.1875 38.0625H25.5625V22.4375H41.1875V38.0625ZM41.1875 19.3125H25.5625V3.6875H41.1875V19.3125ZM22.4375 3.6875V19.3125H6.8125V3.6875H22.4375ZM6.8125 22.4375H22.4375V38.0625H6.8125V22.4375ZM44.3125 44.3125H3.6875V41.1875H44.3125V44.3125Z" fill="currentColor"/>
</svg>
