<svg width="53" height="55" viewBox="0 0 53 55" fill="none" xmlns="http://www.w3.org/2000/svg">
<path d="M47.7796 10.6418C47.4901 10.6418 47.2037 10.5199 47.0026 10.2823C46.6411 9.85369 46.6939 9.21283 47.1225 8.85127C48.7657 7.46393 49.9469 5.6358 50.538 3.56698C50.6934 3.02666 51.2591 2.72299 51.7933 2.86823C52.3326 3.0226 52.6454 3.58526 52.4921 4.12354C51.7893 6.58237 50.3857 8.75377 48.4336 10.4021C48.2427 10.5636 48.0111 10.6418 47.7796 10.6418Z" fill="currentColor"/>
<path d="M28.7683 23.3015C28.428 23.3015 28.0959 23.1309 27.903 22.8201C27.6084 22.3428 27.7547 21.7172 28.232 21.4216C34.1013 17.7857 40.3037 13.6561 47.1917 8.79537C47.6497 8.47341 48.2825 8.58209 48.6075 9.04013C48.9304 9.49818 48.8208 10.1319 48.3627 10.4559C41.4422 15.3401 35.2073 19.4909 29.3015 23.1492C29.1359 23.2528 28.9511 23.3015 28.7683 23.3015Z" fill="currentColor"/>
<path d="M43.9388 25.7979C43.6494 25.7979 43.3619 25.675 43.1609 25.4363C42.7993 25.0077 42.8541 24.3669 43.2837 24.0063L45.575 22.0787C46.0046 21.7151 46.6455 21.772 47.005 22.2016C47.3666 22.6302 47.3117 23.271 46.8821 23.6316L44.5909 25.5592C44.4009 25.7197 44.1684 25.7979 43.9388 25.7979Z" fill="currentColor"/>
<path d="M43.9374 25.7978C43.4854 25.7978 43.0731 25.4941 42.9542 25.0361L40.2375 14.5071C40.0973 13.9638 40.4253 13.4102 40.9677 13.2691C41.511 13.1309 42.0646 13.4559 42.2057 13.9993L44.9225 24.5283C45.0627 25.0716 44.7346 25.6252 44.1923 25.7663C44.107 25.7877 44.0217 25.7978 43.9374 25.7978Z" fill="currentColor"/>
<path d="M46.2298 23.8701C45.6743 23.8701 45.2213 23.4243 45.2142 22.8687L45.0557 10.8458C45.0486 10.2841 45.4975 9.82404 46.0572 9.81592H46.0714C46.6269 9.81592 47.0799 10.2618 47.087 10.8173L47.2454 22.8403C47.2525 23.4019 46.8036 23.862 46.244 23.8701C46.2389 23.8701 46.2339 23.8701 46.2298 23.8701Z" fill="currentColor"/>
<path d="M30.672 27.9339C30.1876 27.9339 29.759 27.5865 29.6727 27.0929L28.7555 21.8493C28.6591 21.2968 29.0287 20.7707 29.5812 20.6742C30.1317 20.5807 30.6609 20.9484 30.7563 21.4999L31.6734 26.7435C31.7699 27.296 31.4002 27.8221 30.8477 27.9186C30.7898 27.9288 30.7299 27.9339 30.672 27.9339Z" fill="currentColor"/>
<path d="M32.3612 26.7736C32.282 26.7736 32.2028 26.7644 32.1226 26.7462C31.5782 26.6141 31.242 26.0657 31.373 25.5203L32.9848 18.8233C33.1159 18.2789 33.6623 17.9458 34.2107 18.0737C34.7551 18.2058 35.0912 18.7542 34.9602 19.2996L33.3484 25.9966C33.2357 26.4618 32.8193 26.7736 32.3612 26.7736Z" fill="currentColor"/>
<path d="M30.6738 27.9334C30.3508 27.9334 30.0329 27.7801 29.8359 27.4927C29.518 27.0306 29.6358 26.3988 30.0979 26.0799L31.7839 24.9201C32.246 24.6022 32.8777 24.721 33.1966 25.1821C33.5145 25.6442 33.3967 26.276 32.9346 26.5949L31.2486 27.7547C31.0729 27.8756 30.8728 27.9334 30.6738 27.9334Z" fill="currentColor"/>
<path d="M13.5046 45.9012C13.3513 45.9012 13.1938 45.8667 13.0476 45.7926C12.5469 45.5397 12.3468 44.9283 12.5997 44.4276L14.3283 41.008C14.5802 40.5072 15.1916 40.3051 15.6933 40.5601C16.194 40.813 16.3941 41.4244 16.1412 41.9251L14.4126 45.3447C14.2338 45.6981 13.8753 45.9012 13.5046 45.9012Z" fill="currentColor"/>
<path d="M15.2347 42.4814C14.6842 42.4814 14.2322 42.0416 14.219 41.4891C14.2058 40.9285 14.6507 40.4633 15.2113 40.4501L16.6565 40.4166L17.4051 39.856C17.5371 39.7565 17.6915 39.6915 17.855 39.6651L19.3012 39.4355L21.5153 38.4199C21.5722 38.3945 21.629 38.3742 21.689 38.358L23.4785 37.905L25.0486 36.5126L25.2985 35.8951C24.7033 35.3659 24.1031 34.8419 23.4998 34.3208C23.1007 33.9766 23.0316 33.3844 23.3404 32.9569L23.77 32.3627L23.7436 31.4131L23.0316 30.0156L22.1734 28.6699C21.8728 28.1956 22.014 27.569 22.4883 27.2683C22.9636 26.9677 23.5902 27.1089 23.8898 27.5832L24.7947 29.0112L25.658 30.6941C25.7261 30.8281 25.7636 30.9754 25.7687 31.1267L25.8124 32.6491C25.8185 32.8726 25.7504 33.0919 25.6204 33.2727L25.5331 33.3926C26.0886 33.878 26.6411 34.3645 27.1906 34.8571C27.5085 35.1435 27.6131 35.5975 27.4526 35.9946L26.8443 37.4957C26.7854 37.6409 26.694 37.7699 26.5761 37.8735L24.6434 39.5879C24.5226 39.6955 24.3763 39.7727 24.2199 39.8134L22.2811 40.3049L20.0243 41.3398C19.9401 41.3784 19.8507 41.4048 19.7593 41.4191L18.4247 41.6313L17.6173 42.2356C17.4477 42.3626 17.2436 42.4337 17.0323 42.4387L15.2621 42.4804C15.2509 42.4814 15.2428 42.4814 15.2347 42.4814Z" fill="currentColor"/>
<path d="M23.558 48.244C18.3834 48.244 13.2291 46.5296 9.14021 43.2928L8.79997 43.0216C8.36021 42.6733 8.28607 42.0345 8.63544 41.5957C8.9838 41.1559 9.62365 41.0808 10.0614 41.4312L10.4016 41.7013C15.7946 45.97 23.2259 47.338 29.797 45.2631C37.1664 42.9394 42.8021 36.5135 44.1559 28.8912C44.2544 28.3398 44.7754 27.9721 45.333 28.0686C45.8855 28.1671 46.2532 28.6932 46.1557 29.2457C44.6719 37.6033 38.4908 44.6517 30.4084 47.2009C28.1832 47.9017 25.8676 48.244 23.558 48.244Z" fill="currentColor"/>
<path d="M6.52246 40.3447C6.23097 40.3447 5.94254 40.2208 5.74144 39.9801C-0.423401 32.5864 -1.33746 22.0249 3.46847 13.7008C7.64371 6.46756 15.4366 2.06279 23.7698 2.15826C24.3314 2.16638 24.7793 2.62748 24.7712 3.1881C24.7631 3.74974 24.2756 4.19763 23.7414 4.18951C23.65 4.18849 23.5575 4.18748 23.4661 4.18748C16.0683 4.18748 8.93152 8.29771 5.22652 14.7165C0.913161 22.1874 1.76629 32.042 7.29941 38.6791C7.65894 39.1108 7.60105 39.7506 7.17043 40.1091C6.98152 40.2676 6.75199 40.3447 6.52246 40.3447Z" fill="currentColor"/>
<path d="M28.0715 20.8668C27.9558 20.8668 27.8379 20.8465 27.7211 20.8038L22.9538 19.0549C22.4267 18.863 22.1576 18.278 22.3505 17.7519C22.5425 17.2258 23.1254 16.9536 23.6536 17.1486L28.4209 18.8975C28.948 19.0894 29.2172 19.6744 29.0242 20.2005C28.8739 20.6119 28.4849 20.8668 28.0715 20.8668Z" fill="currentColor"/>
<path d="M28.2099 23.4661C27.6239 23.4661 27.0471 23.2081 26.6256 22.7176C25.936 21.9142 25.9258 20.798 26.6022 20.0058C26.9648 19.5773 27.6067 19.5265 28.0332 19.8921C28.4608 20.2547 28.5116 20.8965 28.147 21.3231C28.1348 21.3373 28.1317 21.3444 28.1317 21.3444C28.1358 21.3658 28.1876 21.4267 28.2201 21.4348C28.6974 21.1393 29.3302 21.2815 29.6247 21.7578C29.9203 22.2351 29.7781 22.8547 29.3017 23.1492C28.9585 23.3625 28.5817 23.4661 28.2099 23.4661Z" fill="currentColor"/>
<path d="M27.3745 21.6803C27.1419 21.6803 26.9073 21.6011 26.7164 21.4386C26.2898 21.075 26.238 20.4341 26.6016 20.0065C31.4502 14.3099 36.8929 9.06723 42.1539 3.99723L42.6393 3.53004C43.0425 3.14004 43.6844 3.15223 44.0754 3.55543C44.4654 3.95965 44.4532 4.60254 44.05 4.99152L43.5635 5.45973C38.3371 10.4952 32.932 15.7023 28.1484 21.3228C27.9473 21.5584 27.6619 21.6803 27.3745 21.6803Z" fill="currentColor"/>
<path d="M27.8654 17.4838C27.4906 17.4838 27.129 17.2756 26.9533 16.9161L25.9306 14.8371L25.2837 13.7971C25.0917 13.4843 25.0826 13.0932 25.2613 12.7713L25.9377 11.5525C26.1022 11.256 26.4039 11.061 26.7431 11.0325L28.2533 10.9096L28.4097 10.7959L28.2889 10.5095C27.9812 10.6151 27.6409 10.5664 27.3758 10.3785L25.7803 9.25519L25.3141 9.34254C24.9993 9.40246 24.6712 9.30902 24.4356 9.08965L23.7033 8.41121C23.5835 8.30051 23.4921 8.16137 23.4362 8.00801L23.0716 6.98324L21.7117 5.84676L20.1395 5.62129C19.65 5.55121 19.2813 5.13684 19.2691 4.64223L19.2376 3.43363C19.2234 2.87301 19.6662 2.40582 20.2269 2.3916C20.7428 2.39262 21.2547 2.81918 21.2689 3.38082L21.278 3.73324L22.2865 3.87848C22.4734 3.90488 22.6481 3.9841 22.7923 4.10496L24.5869 5.60402C24.7271 5.7198 24.8317 5.87215 24.8937 6.04277L25.2674 7.09395L25.4411 7.25441L25.827 7.1823C26.0982 7.12949 26.3754 7.19144 26.6009 7.34988L28.1132 8.41629L28.5042 8.27309C29.012 8.08621 29.5787 8.33402 29.789 8.83371L30.5974 10.7543C30.7802 11.1889 30.6401 11.6927 30.2582 11.97L29.2192 12.7246C29.0689 12.8332 28.8912 12.8993 28.7043 12.9155L27.453 13.0181L27.3281 13.2425L27.71 13.8611L28.7794 16.0243C29.0262 16.5271 28.819 17.1364 28.3163 17.3843C28.169 17.4493 28.0157 17.4838 27.8654 17.4838Z" fill="currentColor"/>
<path d="M24.7438 17.6636C24.2106 17.6636 23.7617 17.2472 23.7312 16.7069C23.6987 16.1473 24.1263 15.6669 24.6859 15.6344L31.2702 15.2525C31.8176 15.222 32.3102 15.6476 32.3427 16.2072C32.3752 16.7668 31.9476 17.2472 31.388 17.2797L24.8037 17.6616C24.7834 17.6626 24.7631 17.6636 24.7438 17.6636Z" fill="currentColor"/>
<path d="M23.3051 19.118C23.0471 19.118 22.7881 19.0194 22.5901 18.8244C22.192 18.4294 22.1879 17.7865 22.583 17.3873L24.0231 15.933C24.4192 15.5348 25.0601 15.5318 25.4602 15.9259C25.8584 16.3209 25.8624 16.9638 25.4673 17.363L24.0272 18.8173C23.8271 19.0174 23.5661 19.118 23.3051 19.118Z" fill="currentColor"/>
<path d="M35.7652 44.5118C35.6972 44.5118 35.6271 44.5047 35.558 44.4905C35.0086 44.3767 34.6551 43.8385 34.7699 43.289L35.0543 41.9159C35.0685 41.8519 35.0878 41.7889 35.1132 41.727L35.622 40.5204L35.4494 39.5688L34.7638 38.9157L33.5308 38.6405C33.1967 38.5664 32.9215 38.3267 32.8016 38.0057L32.2217 36.4579C32.175 36.334 32.1537 36.202 32.1577 36.0699L32.2166 34.2124C32.2258 33.9097 32.369 33.6284 32.6076 33.4425L34.3078 32.1192L35.6545 30.6871C35.815 30.5155 36.0303 30.4058 36.2629 30.3753L37.4979 30.2138L37.8605 29.8117C38.0869 29.5598 38.4251 29.4389 38.7613 29.4877L40.4493 29.7345C40.7052 29.7721 40.9368 29.9051 41.0983 30.1082L41.9138 31.136L42.7466 31.8256C42.8522 31.912 42.9386 32.0186 43.0015 32.1405L43.681 33.4496C43.7389 33.5603 43.7754 33.6812 43.7887 33.8041L43.9654 35.3712C44.0283 35.9288 43.6272 36.4315 43.0696 36.4945C42.5029 36.5473 42.0083 36.1563 41.9463 35.5987L41.7919 34.2185L41.2943 33.2607L40.5387 32.6351C40.4828 32.5904 40.433 32.5386 40.3904 32.4838L39.7587 31.6875L39.0061 31.5778L38.7562 31.8551C38.5947 32.0349 38.3744 32.1506 38.1347 32.1811L36.8885 32.3446L35.7358 33.5695C35.7002 33.6081 35.6616 33.6436 35.62 33.6751L34.2337 34.7547L34.1971 35.9349L34.514 36.7809L35.4849 36.9982C35.6647 37.0378 35.8292 37.1262 35.9633 37.2531L37.0926 38.3277C37.248 38.476 37.3537 38.671 37.3922 38.8822L37.6776 40.4574C37.7122 40.6514 37.6908 40.8515 37.6137 41.0333L37.0256 42.4278L36.7615 43.7034C36.659 44.1828 36.2365 44.5118 35.7652 44.5118Z" fill="currentColor"/>
<path d="M51.5163 4.86067C51.4238 4.86067 51.3294 4.84849 51.238 4.82208C50.6987 4.66872 50.3849 4.10708 50.5392 3.56778C50.6256 3.26411 50.4691 3.03153 50.397 2.94521C50.3249 2.85888 50.133 2.66693 49.8181 2.69232C49.2697 2.74411 48.7659 2.33075 48.7152 1.77216C48.6644 1.21357 49.0767 0.719972 49.6353 0.669191C50.5098 0.593019 51.3863 0.954582 51.9611 1.64927C52.537 2.34497 52.736 3.27021 52.4923 4.12435C52.3653 4.57021 51.957 4.86067 51.5163 4.86067Z" fill="currentColor"/>
<path d="M43.3447 5.27587C43.0481 5.27587 42.7546 5.14688 42.5545 4.89907C42.2011 4.46235 42.2692 3.82251 42.7049 3.4711C44.6935 1.86337 47.0893 0.89446 49.6365 0.667976C50.188 0.619226 50.6887 1.03157 50.7374 1.59016C50.7872 2.14876 50.3749 2.64134 49.8152 2.6911C47.6733 2.88204 45.6552 3.69657 43.9825 5.04938C43.7936 5.20173 43.5692 5.27587 43.3447 5.27587Z" fill="currentColor"/>
<path d="M41.8396 6.72634C41.7726 6.72634 41.7025 6.71923 41.6345 6.70501L29.8573 4.28478C29.3078 4.17205 28.9534 3.63478 29.0671 3.08533C29.1809 2.53587 29.7182 2.18142 30.2666 2.29517L42.0448 4.71642C42.5943 4.82915 42.9487 5.36642 42.835 5.91587C42.7344 6.39626 42.3119 6.72634 41.8396 6.72634Z" fill="currentColor"/>
<path d="M37.5636 10.8445C37.4173 10.8445 37.2701 10.814 37.1299 10.747L27.3017 6.09443C26.7949 5.85474 26.5776 5.24841 26.8173 4.74161C27.057 4.23482 27.6653 4.01646 28.1701 4.25716L37.9983 8.90974C38.5051 9.14943 38.7224 9.75576 38.4827 10.2626C38.3091 10.6302 37.9445 10.8445 37.5636 10.8445Z" fill="currentColor"/>
<path d="M27.7377 6.192C27.4422 6.192 27.1487 6.06403 26.9486 5.81622C26.5951 5.38051 26.6622 4.74067 27.0969 4.38825L29.4216 2.50223C29.8594 2.14778 30.4982 2.21582 30.8496 2.65051C31.203 3.08622 31.136 3.72606 30.7013 4.07848L28.3766 5.9645C28.1876 6.11684 27.9612 6.192 27.7377 6.192Z" fill="currentColor"/>
<path d="M6.22602 54.3431C3.29087 54.3431 1.36423 53.2035 0.770085 51.0992C-0.165305 47.7842 1.97665 44.0568 4.19376 40.8474C9.4811 33.1957 16.4534 26.976 22.5776 21.901C23.0102 21.5404 23.6501 21.6024 24.0066 22.035C24.3651 22.4667 24.3052 23.1075 23.8725 23.464C17.8559 28.4507 11.0116 34.5536 5.86446 42.0022C4.68532 43.7095 1.92384 47.706 2.72618 50.5477C3.17204 52.1321 5.13524 52.3829 6.70032 52.3007C12.2101 52.0376 17.728 49.0892 22.5969 46.4862L22.8305 46.3613C23.3251 46.0972 23.9416 46.2841 24.2056 46.7777C24.4707 47.2723 24.2828 47.8888 23.7892 48.1528L23.5546 48.2778C18.4968 50.9803 12.7636 54.0445 6.79782 54.3289C6.60282 54.338 6.4129 54.3431 6.22602 54.3431Z" fill="currentColor"/>
<path d="M25.73 26.8956C25.5654 26.8956 25.3989 26.856 25.2435 26.7707C23.7668 25.9633 22.6729 24.5678 22.2423 22.9408C22.0981 22.3984 22.4221 21.8429 22.9644 21.6986C23.5047 21.5565 24.0633 21.8784 24.2065 22.4208C24.495 23.5105 25.2282 24.4469 26.2175 24.9883C26.709 25.2574 26.8908 25.8739 26.6207 26.3654C26.4368 26.7057 26.0895 26.8956 25.73 26.8956Z" fill="currentColor"/>
<path d="M10.2378 52.1479C9.00887 52.1479 7.79621 51.9336 6.72676 51.3354C5.26121 50.5026 4.65082 48.709 5.30082 47.1612C7.0284 43.2267 9.87723 39.8487 12.6458 36.7257C15.7221 33.2533 19.1824 30.1556 22.4608 27.2794C23.0458 26.7654 23.6511 26.2719 24.2564 25.7772L25.0821 25.0988C25.5138 24.7383 26.1557 24.8002 26.5122 25.2319C26.8707 25.6645 26.8107 26.3044 26.3791 26.6619L25.5402 27.3515C24.9542 27.8298 24.3682 28.3072 23.8004 28.8058C20.5687 31.6394 17.1643 34.6894 14.1652 38.0724C11.3936 41.2005 8.7702 44.3104 7.16652 47.9626C6.92074 48.5476 7.15738 49.2443 7.7241 49.5662C9.42121 50.5158 11.9318 50.0619 13.9296 49.5611C17.1115 48.7619 20.0761 47.4791 22.5573 46.3294C23.0651 46.0908 23.6694 46.3142 23.905 46.824C24.1407 47.3329 23.9203 47.9361 23.4104 48.1718C20.845 49.3611 17.7686 50.6895 14.4232 51.5304C13.1486 51.8514 11.683 52.1479 10.2378 52.1479Z" fill="currentColor"/>
<path d="M19.3057 26.9921C18.8659 26.9921 18.4617 26.7057 18.3317 26.2629L17.8056 24.4744L16.335 23.0139C16.1024 22.7824 15.9957 22.4533 16.0485 22.1303L16.2303 21.0213L15.6616 20.2789C15.4747 20.0351 15.4087 19.7192 15.4808 19.4207L16.1806 16.5525L15.7286 15.671C15.6128 15.4455 15.5854 15.1845 15.6525 14.9387L16.4152 12.1569C16.533 11.7283 16.9159 11.4257 17.3607 11.4114L17.4552 11.4074L17.4521 9.84433L17.05 7.61198L16.2669 6.56995L14.9964 6.74058L13.9574 7.41394C13.4953 7.71558 12.8778 7.59066 12.566 7.13566L12.0805 6.42573C11.7636 5.96159 11.8835 5.32987 12.3466 5.013C12.7732 4.72456 13.3419 4.79972 13.6781 5.1755L14.0833 4.91245C14.2093 4.83019 14.3525 4.77737 14.4997 4.75808L16.5858 4.47776C16.9535 4.42901 17.313 4.58034 17.5344 4.87487L18.8202 6.5862C18.9157 6.71316 18.9796 6.86042 19.0081 7.01683L19.4682 9.5762C19.4793 9.63511 19.4844 9.69401 19.4844 9.75394L19.4885 12.3905C19.4895 12.9389 19.0548 13.3889 18.5074 13.4071L18.1783 13.4193L17.7182 15.0992L18.1631 15.9665C18.2738 16.1839 18.3043 16.4337 18.2464 16.6703L17.572 19.4349L18.1113 20.1397C18.2819 20.3621 18.352 20.6445 18.3073 20.9207L18.1397 21.9465L19.4245 23.2232C19.5453 23.343 19.6347 23.4933 19.6825 23.6568L20.2817 25.6952C20.4401 26.2335 20.1324 26.7982 19.5941 26.9556C19.4956 26.9789 19.4001 26.9921 19.3057 26.9921Z" fill="currentColor"/>
</svg>
