<svg width="39" height="36" viewBox="0 0 39 36" fill="none" xmlns="http://www.w3.org/2000/svg">
<path d="M38.6375 12.4265H34.8254C34.2383 5.48402 27.9067 0 20.2082 0C12.5096 0 6.17806 5.48402 5.591 12.4265H1.77889C1.14541 12.4265 0.631836 12.8988 0.631836 13.4812V24.7781C0.631836 25.3606 1.14541 25.8328 1.77889 25.8328H6.69339C7.32687 25.8328 7.84044 25.3606 7.84044 24.7781V13.4812C7.84044 7.21076 13.3886 2.10938 20.2082 2.10938C27.0278 2.10938 32.5759 7.21076 32.5759 13.4812V24.7781C32.5759 28.5569 29.2323 31.6313 25.1226 31.6313H23.6243C23.1439 30.3196 21.7946 29.3719 20.2082 29.3719C18.2208 29.3719 16.6038 30.8586 16.6038 32.686C16.6038 34.5133 18.2208 36 20.2082 36C21.7946 36 23.1439 35.0523 23.6243 33.7407H25.1226C30.1092 33.7407 34.2326 30.2795 34.8022 25.8328H38.6375C39.271 25.8328 39.7845 25.3606 39.7845 24.7781V13.4812C39.7845 12.8988 39.271 12.4265 38.6375 12.4265ZM5.54634 23.7234H2.92594V14.5359H5.54634V23.7234ZM20.2082 33.8906C19.4858 33.8906 18.8979 33.3502 18.8979 32.686C18.8979 32.0217 19.4858 31.4813 20.2082 31.4813C20.9306 31.4813 21.5184 32.0217 21.5184 32.686C21.5184 33.3502 20.9306 33.8906 20.2082 33.8906ZM37.4904 23.7234H34.87V14.5359H37.4904V23.7234Z" fill="#1B1B1B"/>
<path d="M28.6325 12.5071C28.2041 12.3438 27.7107 12.434 27.3826 12.7356C27.3825 12.7356 23.8012 16.0274 22.1033 17.5875C21.3407 18.2926 20.9033 19.2665 20.9033 20.2596C20.9033 20.8421 21.4169 21.3143 22.0504 21.3143H27.0465V23.6487C27.0465 24.2312 27.56 24.7034 28.1935 24.7034C28.827 24.7034 29.3406 24.2312 29.3406 23.6487V21.3143H29.4221C30.0556 21.3143 30.5691 20.8421 30.5691 20.2596C30.5691 19.6772 30.0556 19.2049 29.4221 19.2049H29.3406V13.4815C29.3406 13.055 29.0611 12.6704 28.6325 12.5071ZM27.0465 19.2049H23.6032C23.6422 19.1605 23.6836 19.1179 23.7274 19.0773C24.5866 18.2879 25.9302 17.0531 27.0465 16.0271V19.2049Z" fill="#1B1B1B"/>
<path d="M18.899 23.6486C18.899 23.0662 18.3854 22.5939 17.752 22.5939H13.1617C13.2006 22.5495 13.2421 22.5068 13.2859 22.4663C14.9815 20.9084 18.5629 17.6164 18.5629 17.6164C18.7781 17.4186 18.8991 17.1503 18.8991 16.8705V16.3057C18.8991 14.1669 17.0067 12.4268 14.6805 12.4268C12.3313 12.4268 10.4619 14.177 10.4619 16.3045V16.3056C10.4619 16.8881 10.9755 17.3597 11.609 17.3597C12.2424 17.3597 12.756 16.887 12.756 16.3045C12.756 15.3377 13.6026 14.5361 14.6805 14.5361C15.7417 14.5361 16.605 15.33 16.605 16.3057V16.4335C15.6749 17.2884 13.0442 19.7064 11.6618 20.9766C10.8992 21.6816 10.4619 22.6556 10.4619 23.6486C10.4619 24.2311 10.9755 24.7033 11.609 24.7033H17.752C18.3854 24.7033 18.899 24.2312 18.899 23.6486Z" fill="#1B1B1B"/>
</svg>
