<svg width="37" height="37" viewBox="0 0 37 37" fill="none" xmlns="http://www.w3.org/2000/svg">
<path d="M3.32422 19.6562H33.6758C34.2744 19.6562 34.7598 19.1709 34.7598 18.5723V1.08398C34.7598 0.485336 34.2744 0 33.6758 0H3.32422C2.72557 0 2.24023 0.485336 2.24023 1.08398V18.5723C2.24023 19.1709 2.72557 19.6562 3.32422 19.6562ZM4.4082 2.16797H32.5918V17.4883H4.4082V2.16797Z" fill="#1B1B1B"/>
<path d="M36.7624 26.6013C34.8953 24.2679 31.4778 23.8884 29.1443 25.7551C28.107 26.5849 27.3748 27.144 26.8189 27.5221C26.0467 25.4694 24.0523 24.0164 21.752 24.0164C19.8983 24.0164 17.4007 23.9308 14.5149 23.2634C11.6994 22.6173 10.1352 22.7699 7.42493 23.9921H1.08398C0.485336 23.9921 0 24.4775 0 25.0761V35.916C0 36.5146 0.485336 36.9999 1.08398 36.9999H7.66016C8.2588 36.9999 8.74414 36.5146 8.74414 35.916V34.8602C10.4618 34.3831 11.9386 34.3342 13.4488 34.6942C15.8083 35.2565 18.0186 35.5367 20.1232 35.5367C26.7206 35.5367 32.2124 32.7398 36.701 28.026C37.0749 27.6334 37.1012 27.0247 36.7624 26.6013ZM2.16797 34.832V26.1602H6.57617V34.832H2.16797ZM13.9515 32.5853C12.2409 32.1777 10.5893 32.1851 8.74414 32.6221V25.7796C10.7463 24.9228 11.8158 24.8683 14.0282 25.3761C17.1259 26.0925 19.7831 26.1844 21.752 26.1844C23.1467 26.1844 24.353 27.0735 24.8034 28.3229C24.7629 28.3249 16.332 28.3281 16.332 28.3281C15.7334 28.3281 15.248 28.8135 15.248 29.4121C15.248 30.0108 15.7334 30.4961 16.332 30.4961C16.332 30.4961 24.7225 30.4959 24.7347 30.4955C26.5747 30.4335 27.5287 29.8238 30.4986 27.4482C31.6414 26.534 33.2174 26.5176 34.3671 27.3036C26.8798 34.5908 19.1671 33.8283 13.9515 32.5853Z" fill="#1B1B1B"/>
<path d="M9.82812 6.50391C10.4268 6.50391 10.9121 6.01857 10.9121 5.41992C10.9121 4.82127 10.4268 4.33594 9.82812 4.33594H7.66016C7.06151 4.33594 6.57617 4.82127 6.57617 5.41992V14.2363C6.57617 14.835 7.06151 15.3203 7.66016 15.3203H9.82812C10.4268 15.3203 10.9121 14.835 10.9121 14.2363C10.9121 13.6377 10.4268 13.1523 9.82812 13.1523H8.74414V6.50391H9.82812Z" fill="#1B1B1B"/>
<path d="M29.3398 4.33594H27.1719C26.5732 4.33594 26.0879 4.82127 26.0879 5.41992C26.0879 6.01857 26.5732 6.50391 27.1719 6.50391H28.2559V13.1523H27.1719C26.5732 13.1523 26.0879 13.6377 26.0879 14.2363C26.0879 14.835 26.5732 15.3203 27.1719 15.3203H29.3398C29.9385 15.3203 30.4238 14.835 30.4238 14.2363V5.41992C30.4238 4.82127 29.9385 4.33594 29.3398 4.33594Z" fill="#1B1B1B"/>
<path d="M18.5 4.33594C15.5042 4.33594 13.0801 6.83149 13.0801 9.82812C13.0801 12.8241 15.5034 15.3203 18.5 15.3203C21.4958 15.3203 23.9199 12.8248 23.9199 9.82812C23.9199 6.83214 21.4966 4.33594 18.5 4.33594ZM18.5 13.1523C16.7372 13.1523 15.248 11.6301 15.248 9.82812C15.248 8.02618 16.7372 6.50391 18.5 6.50391C20.2628 6.50391 21.752 8.02618 21.752 9.82812C21.752 11.6301 20.2628 13.1523 18.5 13.1523Z" fill="#1B1B1B"/>
</svg>
