<svg width="26" height="32" viewBox="0 0 26 32" fill="none" xmlns="http://www.w3.org/2000/svg">
<path d="M22.6204 13.6244V8.56111C22.6353 6.27008 21.6309 4.06716 19.8378 2.46072C18.1042 0.888177 15.835 0.0273438 13.4318 0.0273438C13.3946 0.0273438 13.35 0.0273438 13.3128 0.0273438C8.18647 0.034122 4.01996 3.85703 4.01996 8.56111V13.6244C2.08551 13.8346 0.671875 15.3122 0.671875 17.1017V28.4755C0.671875 30.4073 2.36824 32.0002 4.48869 32.0002H22.1591C24.2796 32.0002 25.976 30.4073 25.976 28.4755V17.1017C25.9685 15.319 24.5549 13.8346 22.6204 13.6244ZM5.50056 8.56111H5.508C5.508 4.60264 9.01233 1.36265 13.3202 1.36265H13.3276C15.3737 1.35587 17.3379 2.0947 18.7887 3.40967C20.2991 4.77209 21.1398 6.62932 21.125 8.56111V13.6312H19.4881V8.56111C19.503 7.02246 18.8334 5.54481 17.6355 4.46029C16.5046 3.43001 14.9719 2.84708 13.3723 2.84708H13.3276C9.90515 2.84708 7.1374 5.40924 7.1374 8.55433V13.6312H5.50056V8.56111ZM18.0075 8.56111V13.6312H8.63288V8.56111C8.63288 6.16163 10.731 4.2095 13.3351 4.2095H13.3797C14.585 4.2095 15.7457 4.65008 16.6013 5.42958C17.509 6.25652 18.0224 7.38848 18.0075 8.56111ZM24.5549 28.4958C24.5549 29.682 23.4984 30.6445 22.1963 30.6445H4.51845C3.21642 30.6445 2.15991 29.682 2.15991 28.4958V17.1355C2.15991 15.9494 3.21642 14.9869 4.51845 14.9869H22.1963C23.4984 14.9869 24.5549 15.9494 24.5549 17.1355V28.4958Z" fill="#1B1B1B"/>
</svg>
