<svg width="13" height="11" viewBox="0 0 13 11" fill="none" xmlns="http://www.w3.org/2000/svg">
<path d="M6.31614 10.9251C6.28034 10.9251 6.24493 10.9176 6.21213 10.9031C6.17933 10.8885 6.14986 10.8672 6.12556 10.8406L0.986924 5.20462C0.952668 5.16705 0.929959 5.12017 0.921575 5.06971C0.913192 5.01925 0.919497 4.96741 0.939721 4.92053C0.959944 4.87365 0.993207 4.83377 1.03544 4.80576C1.07767 4.77775 1.12704 4.76283 1.17751 4.76283H3.65096C3.6881 4.76284 3.7248 4.77092 3.7586 4.78653C3.79239 4.80214 3.82249 4.82492 3.84687 4.85333L5.56422 6.85661C5.74982 6.45435 6.10911 5.78455 6.73959 4.96839C7.67167 3.7618 9.40537 1.98728 12.3715 0.385374C12.4289 0.354419 12.4956 0.346385 12.5585 0.362858C12.6213 0.379332 12.6759 0.419115 12.7112 0.474352C12.7466 0.52959 12.7603 0.596266 12.7495 0.661216C12.7387 0.726165 12.7044 0.784666 12.6532 0.825167C12.6418 0.834141 11.4982 1.74731 10.182 3.41993C8.97063 4.95915 7.36037 7.47601 6.56801 10.7252C6.55409 10.7823 6.52171 10.833 6.47605 10.8693C6.43039 10.9055 6.37406 10.9252 6.31607 10.9253L6.31614 10.9251Z" fill="black"/>
</svg>
