<svg width="26" height="26" viewBox="0 0 26 26" fill="none" xmlns="http://www.w3.org/2000/svg">
<path d="M6.4987 8.9248C6.35504 8.9248 6.21726 8.98187 6.11568 9.08345C6.0141 9.18504 5.95703 9.32281 5.95703 9.46647V10.6429C5.95703 10.7866 6.0141 10.9243 6.11568 11.0259C6.21726 11.1275 6.35504 11.1846 6.4987 11.1846C6.64236 11.1846 6.78013 11.1275 6.88171 11.0259C6.9833 10.9243 7.04036 10.7866 7.04036 10.6429V9.46647C7.04036 9.32281 6.9833 9.18504 6.88171 9.08345C6.78013 8.98187 6.64236 8.9248 6.4987 8.9248Z" fill="black"/>
<path d="M6.4987 11.8672C6.35504 11.8672 6.21726 11.9243 6.11568 12.0258C6.0141 12.1274 5.95703 12.2652 5.95703 12.4089V13.5853C5.95703 13.7289 6.0141 13.8667 6.11568 13.9683C6.21726 14.0699 6.35504 14.127 6.4987 14.127C6.64236 14.127 6.78013 14.0699 6.88171 13.9683C6.9833 13.8667 7.04036 13.7289 7.04036 13.5853V12.4089C7.04036 12.2652 6.9833 12.1274 6.88171 12.0258C6.78013 11.9243 6.64236 11.8672 6.4987 11.8672Z" fill="black"/>
<path d="M6.4987 14.8091C6.35504 14.8091 6.21726 14.8661 6.11568 14.9677C6.0141 15.0693 5.95703 15.2071 5.95703 15.3507V16.5272C5.95703 16.6708 6.0141 16.8086 6.11568 16.9102C6.21726 17.0118 6.35504 17.0688 6.4987 17.0688C6.64236 17.0688 6.78013 17.0118 6.88171 16.9102C6.9833 16.8086 7.04036 16.6708 7.04036 16.5272V15.3507C7.04036 15.2071 6.9833 15.0693 6.88171 14.9677C6.78013 14.8661 6.64236 14.8091 6.4987 14.8091Z" fill="black"/>
<path d="M4.80176 2.70947C4.17085 2.7623 3.59607 3.18278 3.38623 3.81714L2.66472 5.99544C1.78502 6.06901 1.08203 6.80774 1.08203 7.70508V9.86011C1.0822 10.0951 1.2339 10.3032 1.4576 10.3753C2.13334 10.5934 2.7068 11.4424 2.70703 12.4817C2.70712 13.5213 2.13355 14.3709 1.4576 14.5891C1.2339 14.6612 1.0822 14.8693 1.08203 15.1043V18.3416C1.08203 19.287 1.86003 20.065 2.80542 20.065H11.3568L20.5535 23.205C21.4025 23.4949 22.3314 23.0204 22.6112 22.1746L23.3136 20.0523C24.2023 19.988 24.9154 19.2454 24.9154 18.3416V15.1033C24.9152 14.8682 24.7635 14.6601 24.5398 14.5881C23.8641 14.37 23.2906 13.521 23.2904 12.4817C23.2903 11.442 23.8638 10.5924 24.5398 10.3743C24.7635 10.3022 24.9152 10.0941 24.9154 9.85905V7.70508C24.9154 6.75969 24.1374 5.98169 23.192 5.98169H14.6427L5.4471 2.7867C5.23421 2.71215 5.00217 2.72157 4.80176 2.70947ZM4.8811 3.78434C4.95135 3.77955 5.02463 3.78879 5.09798 3.81291C7.17866 4.53542 9.25923 5.25866 11.3398 5.98169H3.81047L4.41455 4.15674C4.48735 3.93667 4.67037 3.79871 4.8811 3.78434ZM2.80542 7.06502H5.95703V7.58024C5.95703 7.8794 6.19954 8.12191 6.4987 8.12191C6.79785 8.12191 7.04037 7.8794 7.04037 7.58024V7.06502H23.192C23.556 7.06502 23.832 7.34101 23.832 7.70508V9.54907C22.8316 10.0761 22.2069 11.212 22.207 12.4817C22.2073 13.751 22.8319 14.8864 23.832 15.4132V18.3416C23.832 18.7057 23.556 18.9817 23.192 18.9817H7.03931C7.042 18.7947 7.04037 18.6024 7.04037 18.4136C7.04037 18.1144 6.79785 17.8719 6.4987 17.8719C6.19955 17.8719 5.95703 18.1144 5.95703 18.4136C5.95595 18.6016 5.95749 18.7959 5.95812 18.9817H2.80545C2.44127 18.9817 2.16536 18.7057 2.16536 18.3416V15.4143C3.16576 14.8873 3.79048 13.7514 3.79036 12.4817C3.79008 11.2124 3.16548 10.077 2.16536 9.55013V7.70508C2.16536 7.34101 2.44135 7.06502 2.80542 7.06502ZM14.7094 20.065H22.1679L21.5828 21.8339C21.4857 22.1277 21.1906 22.2778 20.9036 22.1799L14.7094 20.065Z" fill="black"/>
<path d="M17.7466 13.8447C18.7108 13.8447 19.5038 14.6377 19.5038 15.602C19.5038 16.5662 18.7108 17.3603 17.7466 17.3603C16.7823 17.3603 15.9883 16.5662 15.9883 15.602C15.9883 14.6377 16.7823 13.8447 17.7466 13.8447ZM17.7466 14.9281C17.3678 14.9281 17.0716 15.2232 17.0716 15.602C17.0716 15.9807 17.3678 16.2769 17.7466 16.2769C18.1253 16.2769 18.4205 15.9807 18.4205 15.602C18.4205 15.2232 18.1253 14.9281 17.7466 14.9281Z" fill="black"/>
<path d="M12.5864 8.68652C13.5507 8.68652 14.3437 9.47953 14.3437 10.4438C14.3437 11.408 13.5507 12.201 12.5864 12.201C11.6222 12.201 10.8281 11.408 10.8281 10.4438C10.8281 9.47953 11.6222 8.68652 12.5864 8.68652ZM12.5864 9.76986C12.2077 9.76986 11.9115 10.065 11.9115 10.4438C11.9115 10.8225 12.2077 11.1177 12.5864 11.1177C12.9652 11.1177 13.2603 10.8225 13.2603 10.4438C13.2603 10.065 12.9652 9.76986 12.5864 9.76986Z" fill="black"/>
<path d="M17.3601 10.0611L12.2016 15.2197C11.9901 15.4312 11.9901 15.7741 12.2016 15.9856C12.4131 16.1971 12.756 16.1971 12.9675 15.9856L18.1261 10.8271C18.3375 10.6156 18.3375 10.2727 18.1261 10.0611C17.9048 9.86441 17.5687 9.84379 17.3601 10.0611Z" fill="black"/>
</svg>
